<svg width="800" height="600" viewBox="0 0 800 600" xmlns="http://www.w3.org/2000/svg" role="img" aria-label="Stylized group of cartoon kids">
  <rect width="800" height="600" rx="32" fill="#1f2937"/>
  <rect x="40" y="40" width="720" height="520" rx="24" fill="#fef3c7"/>
  <circle cx="400" cy="310" r="190" fill="#fde68a"/>
  <path d="M260 470c20-110 80-150 140-150s120 40 140 150" fill="#f59e0b"/>
  <g transform="translate(180 190)">
    <rect x="0" y="0" width="110" height="140" rx="55" fill="#fb923c"/>
    <circle cx="55" cy="55" r="38" fill="#fef3c7"/>
    <circle cx="45" cy="55" r="5" fill="#111827"/>
    <circle cx="65" cy="55" r="5" fill="#111827"/>
    <path d="M40 73c10 16 20 16 30 0" stroke="#111827" stroke-width="4" fill="none" stroke-linecap="round"/>
    <path d="M18 42c10-28 42-40 74-26" stroke="#111827" stroke-width="8" fill="none" stroke-linecap="round"/>
    <rect x="18" y="80" width="26" height="64" rx="12" fill="#dc2626"/>
    <rect x="66" y="80" width="26" height="64" rx="12" fill="#dc2626"/>
  </g>
  <g transform="translate(340 170)">
    <rect x="0" y="0" width="110" height="140" rx="55" fill="#22c55e"/>
    <circle cx="55" cy="55" r="38" fill="#fef3c7"/>
    <circle cx="45" cy="55" r="5" fill="#111827"/>
    <circle cx="65" cy="55" r="5" fill="#111827"/>
    <path d="M40 73c10 16 20 16 30 0" stroke="#111827" stroke-width="4" fill="none" stroke-linecap="round"/>
    <path d="M28 28c12-20 30-28 54-20" stroke="#111827" stroke-width="8" fill="none" stroke-linecap="round"/>
    <rect x="18" y="88" width="26" height="60" rx="12" fill="#3b82f6"/>
    <rect x="66" y="88" width="26" height="60" rx="12" fill="#3b82f6"/>
  </g>
  <g transform="translate(500 190)">
    <rect x="0" y="0" width="110" height="140" rx="55" fill="#a855f7"/>
    <circle cx="55" cy="55" r="38" fill="#fef3c7"/>
    <circle cx="45" cy="55" r="5" fill="#111827"/>
    <circle cx="65" cy="55" r="5" fill="#111827"/>
    <path d="M40 73c8 16 22 16 30 0" stroke="#111827" stroke-width="4" fill="none" stroke-linecap="round"/>
    <path d="M27 36c14-28 44-30 74-8" stroke="#111827" stroke-width="8" fill="none" stroke-linecap="round"/>
    <rect x="20" y="90" width="26" height="58" rx="12" fill="#ef4444"/>
    <rect x="66" y="90" width="26" height="58" rx="12" fill="#ef4444"/>
  </g>
  <g transform="translate(320 340)">
    <rect x="0" y="0" width="120" height="140" rx="60" fill="#facc15"/>
    <circle cx="60" cy="58" r="38" fill="#fef3c7"/>
    <circle cx="48" cy="58" r="5" fill="#111827"/>
    <circle cx="72" cy="58" r="5" fill="#111827"/>
    <path d="M42 76c10 16 22 16 32 0" stroke="#111827" stroke-width="4" fill="none" stroke-linecap="round"/>
    <path d="M26 32c10-24 38-34 66-20" stroke="#111827" stroke-width="8" fill="none" stroke-linecap="round"/>
    <rect x="24" y="90" width="26" height="58" rx="12" fill="#0f172a"/>
    <rect x="72" y="90" width="26" height="58" rx="12" fill="#0f172a"/>
  </g>
  <text x="400" y="540" text-anchor="middle" font-family="Arial, sans-serif" font-size="36" font-weight="700" fill="#111827">Cartoon friends</text>
</svg>
